<svg viewBox="0 0 128 128" xmlns="http://www.w3.org/2000/svg">
<path d="M91 0H37C34.0826 0 31.2847 1.15893 29.2218 3.22183C27.1589 5.28473 26 8.08262 26 11V117C26 119.917 27.1589 122.715 29.2218 124.778C31.2847 126.841 34.0826 128 37 128H91C93.9174 128 96.7153 126.841 98.7782 124.778C100.841 122.715 102 119.917 102 117V11C102 8.08262 100.841 5.28473 98.7782 3.22183C96.7153 1.15893 93.9174 0 91 0V0ZM32 22.69H96V99.58H32V22.69ZM37 6H91C91.6566 6 92.3068 6.12933 92.9134 6.3806C93.52 6.63188 94.0712 7.00017 94.5355 7.46447C94.9998 7.92876 95.3681 8.47996 95.6194 9.08658C95.8707 9.69321 96 10.3434 96 11V16.69H32V11C32 9.67392 32.5268 8.40215 33.4645 7.46447C34.4021 6.52678 35.6739 6 37 6ZM91 122H37C35.6739 122 34.4021 121.473 33.4645 120.536C32.5268 119.598 32 118.326 32 117V105.58H96V117C96 117.657 95.8707 118.307 95.6194 118.913C95.3681 119.52 94.9998 120.071 94.5355 120.536C94.0712 121 93.52 121.368 92.9134 121.619C92.3068 121.871 91.6566 122 91 122Z"/>
<path d="M64 119.91C67.3137 119.91 70 117.224 70 113.91C70 110.596 67.3137 107.91 64 107.91C60.6863 107.91 58 110.596 58 113.91C58 117.224 60.6863 119.91 64 119.91Z"/>
<path d="M56.13 14.22H71.88C72.6756 14.22 73.4387 13.9039 74.0013 13.3413C74.5639 12.7787 74.88 12.0156 74.88 11.22C74.88 10.4243 74.5639 9.66126 74.0013 9.09865C73.4387 8.53604 72.6756 8.21997 71.88 8.21997H56.13C55.3344 8.21997 54.5713 8.53604 54.0087 9.09865C53.4461 9.66126 53.13 10.4243 53.13 11.22C53.13 12.0156 53.4461 12.7787 54.0087 13.3413C54.5713 13.9039 55.3344 14.22 56.13 14.22Z"/>
</svg>
