<svg viewBox="0 0 25 30" xmlns="http://www.w3.org/2000/svg">
<path d="M23 26H1.00003C0.829562 25.9995 0.662059 25.9554 0.513425 25.8719C0.364791 25.7885 0.239961 25.6684 0.150789 25.5231C0.0616163 25.3778 0.0110625 25.2122 0.00392809 25.0419C-0.00320628 24.8715 0.0333158 24.7022 0.110026 24.55C1.34389 22.0631 1.99049 19.3262 2.00003 16.55V13C2.00003 10.3478 3.05359 7.8043 4.92896 5.92893C6.80432 4.05357 9.34786 3 12 3C14.6522 3 17.1957 4.05357 19.0711 5.92893C20.9465 7.8043 22 10.3478 22 13V16.53C22.0096 19.3062 22.6562 22.0431 23.89 24.53C23.9715 24.6829 24.0118 24.8544 24.007 25.0276C24.0022 25.2008 23.9525 25.3697 23.8628 25.5179C23.7731 25.6661 23.6464 25.7885 23.4951 25.873C23.3439 25.9575 23.1733 26.0013 23 26V26ZM2.55003 24H21.45C20.4964 21.6248 20.0043 19.0895 20 16.53V13C20 10.8783 19.1572 8.84344 17.6569 7.34315C16.1566 5.84285 14.1218 5 12 5C9.87829 5 7.84346 5.84285 6.34317 7.34315C4.84288 8.84344 4.00003 10.8783 4.00003 13V16.53C3.99575 19.0895 3.50364 21.6248 2.55003 24V24Z"/>
<path d="M12 30C10.6739 30 9.40215 29.4732 8.46447 28.5355C7.52678 27.5979 7 26.3261 7 25C7 24.7348 7.10536 24.4804 7.29289 24.2929C7.48043 24.1054 7.73478 24 8 24C8.26522 24 8.51957 24.1054 8.70711 24.2929C8.89464 24.4804 9 24.7348 9 25C9.0007 25.7954 9.31723 26.5579 9.88 27.12C10.4523 27.663 11.2111 27.9657 12 27.9657C12.7889 27.9657 13.5477 27.663 14.12 27.12C14.2132 27.0268 14.3239 26.9528 14.4458 26.9023C14.5676 26.8519 14.6981 26.8259 14.83 26.8259C14.9619 26.8259 15.0924 26.8519 15.2142 26.9023C15.3361 26.9528 15.4468 27.0268 15.54 27.12C15.6332 27.2132 15.7072 27.3239 15.7577 27.4458C15.8081 27.5676 15.8341 27.6981 15.8341 27.83C15.8341 27.9619 15.8081 28.0924 15.7577 28.2142C15.7072 28.3361 15.6332 28.4468 15.54 28.54C15.0748 29.004 14.5227 29.3718 13.9153 29.6223C13.3079 29.8728 12.657 30.0012 12 30Z"/>
<path d="M12 5C11.7348 5 11.4804 4.89464 11.2929 4.70711C11.1054 4.51957 11 4.26522 11 4V1C11 0.734784 11.1054 0.48043 11.2929 0.292893C11.4804 0.105357 11.7348 0 12 0C12.2652 0 12.5196 0.105357 12.7071 0.292893C12.8946 0.48043 13 0.734784 13 1V4C13 4.26522 12.8946 4.51957 12.7071 4.70711C12.5196 4.89464 12.2652 5 12 5Z"/>
</svg>
