<svg viewBox="0 0 32 32" xmlns="http://www.w3.org/2000/svg">
<path d="M31.993 6.077C30.816 6.6 29.552 6.953 28.223 7.11C29.578 6.298 30.619 5.012 31.11 3.48C29.841 4.231 28.437 4.779 26.942 5.072C25.744 3.797 24.038 3 22.149 3C18.524 3 15.587 5.938 15.587 9.563C15.587 10.077 15.644 10.579 15.756 11.059C10.301 10.785 5.465 8.172 2.227 4.201C1.663 5.171 1.339 6.298 1.339 7.501C1.339 9.779 2.498 11.787 4.258 12.965C3.183 12.93 2.171 12.636 1.286 12.144C1.285 12.171 1.285 12.2 1.285 12.226C1.285 15.407 3.547 18.06 6.55 18.663C6 18.812 5.42 18.893 4.821 18.893C4.397 18.893 3.987 18.852 3.587 18.776C4.421 21.382 6.846 23.28 9.717 23.334C7.472 25.094 4.642 26.145 1.567 26.145C1.037 26.145 0.513999 26.114 0.000999451 26.053C2.905 27.913 6.355 29 10.062 29C22.134 29 28.737 18.999 28.737 10.325C28.737 10.041 28.729 9.757 28.717 9.475C30 8.55 31.112 7.395 31.993 6.077Z"/>
</svg>
